<svg width="95" height="73" viewBox="0 0 55 33" fill="none" xmlns="http://www.w3.org/2000/svg">
<path d="M11.772 13.324C11.876 13.324 11.956 13.372 12.012 13.468C12.076 13.564 12.108 13.696 12.108 13.864C12.108 14.176 12.032 14.424 11.88 14.608C11.496 15.072 11.108 15.432 10.716 15.688C10.324 15.936 9.86 16.06 9.324 16.06C8.804 16.06 8.36 15.92 7.992 15.64C7.632 15.36 7.288 14.88 6.96 14.2C6.696 13.656 6.488 13.256 6.336 13C6.184 12.736 6.032 12.548 5.88 12.436C5.736 12.324 5.556 12.256 5.34 12.232C5.308 12.4 5.216 12.928 5.064 13.816C5 14.216 4.96 14.46 4.944 14.548C4.864 15.036 4.704 15.412 4.464 15.676C4.224 15.932 3.86 16.06 3.372 16.06C2.836 16.06 2.36 15.904 1.944 15.592C1.536 15.272 1.22 14.832 0.996 14.272C0.772 13.704 0.66 13.06 0.66 12.34C0.66 10.996 0.892 9.836 1.356 8.86C1.828 7.884 2.484 7.14 3.324 6.628C4.172 6.108 5.148 5.848 6.252 5.848C7.02 5.848 7.664 5.964 8.184 6.196C8.704 6.428 9.088 6.748 9.336 7.156C9.592 7.564 9.72 8.024 9.72 8.536C9.72 8.984 9.612 9.424 9.396 9.856C9.188 10.28 8.872 10.656 8.448 10.984C8.024 11.312 7.508 11.556 6.9 11.716C7.284 11.82 7.58 11.988 7.788 12.22C7.996 12.452 8.204 12.792 8.412 13.24C8.636 13.72 8.856 14.072 9.072 14.296C9.296 14.52 9.552 14.632 9.84 14.632C10.096 14.632 10.34 14.548 10.572 14.38C10.804 14.204 11.096 13.908 11.448 13.492C11.544 13.38 11.652 13.324 11.772 13.324ZM3.684 12.22C3.412 12.22 3.224 12.156 3.12 12.028C3.024 11.9 2.976 11.756 2.976 11.596C2.976 11.404 3.036 11.252 3.156 11.14C3.284 11.028 3.428 10.972 3.588 10.972H3.888C4.016 10.188 4.136 9.512 4.248 8.944C4.352 8.424 4.688 8.164 5.256 8.164C5.712 8.164 5.94 8.368 5.94 8.776C5.94 8.864 5.936 8.932 5.928 8.98L5.568 10.972C6 10.948 6.392 10.844 6.744 10.66C7.104 10.476 7.388 10.22 7.596 9.892C7.812 9.564 7.92 9.192 7.92 8.776C7.92 8.272 7.748 7.876 7.404 7.588C7.06 7.3 6.556 7.156 5.892 7.156C5.108 7.156 4.42 7.352 3.828 7.744C3.244 8.128 2.788 8.704 2.46 9.472C2.132 10.232 1.968 11.16 1.968 12.256C1.968 12.768 2.02 13.208 2.124 13.576C2.228 13.944 2.356 14.22 2.508 14.404C2.66 14.588 2.804 14.68 2.94 14.68C3.044 14.68 3.128 14.628 3.192 14.524C3.264 14.42 3.32 14.252 3.36 14.02L3.684 12.22ZM16.2522 13.324C16.3562 13.324 16.4362 13.372 16.4922 13.468C16.5562 13.564 16.5882 13.696 16.5882 13.864C16.5882 14.184 16.5122 14.432 16.3602 14.608C16.0642 14.968 15.6442 15.3 15.1002 15.604C14.5642 15.908 13.9882 16.06 13.3722 16.06C12.5322 16.06 11.8802 15.832 11.4162 15.376C10.9522 14.92 10.7202 14.296 10.7202 13.504C10.7202 12.952 10.8362 12.44 11.0682 11.968C11.3002 11.488 11.6202 11.108 12.0282 10.828C12.4442 10.548 12.9122 10.408 13.4322 10.408C13.8962 10.408 14.2682 10.548 14.5482 10.828C14.8282 11.1 14.9682 11.472 14.9682 11.944C14.9682 12.496 14.7682 12.972 14.3682 13.372C13.9762 13.764 13.3082 14.076 12.3642 14.308C12.5642 14.676 12.9442 14.86 13.5042 14.86C13.8642 14.86 14.2722 14.736 14.7282 14.488C15.1922 14.232 15.5922 13.9 15.9282 13.492C16.0242 13.38 16.1322 13.324 16.2522 13.324ZM13.2282 11.584C12.9322 11.584 12.6802 11.756 12.4722 12.1C12.2722 12.444 12.1722 12.86 12.1722 13.348V13.372C12.6442 13.26 13.0162 13.092 13.2882 12.868C13.5602 12.644 13.6962 12.384 13.6962 12.088C13.6962 11.936 13.6522 11.816 13.5642 11.728C13.4842 11.632 13.3722 11.584 13.2282 11.584ZM17.9032 16.06C17.1192 16.06 16.5072 15.84 16.0672 15.4C15.6352 14.952 15.4192 14.364 15.4192 13.636C15.4192 12.988 15.5472 12.42 15.8032 11.932C16.0592 11.444 16.3912 11.068 16.7992 10.804C17.2072 10.54 17.6352 10.408 18.0832 10.408C18.5232 10.408 18.8632 10.54 19.1032 10.804C19.3512 11.06 19.4752 11.392 19.4752 11.8C19.4752 12.136 19.3992 12.42 19.2472 12.652C19.1032 12.884 18.9112 13 18.6712 13C18.5192 13 18.3952 12.964 18.2992 12.892C18.2112 12.82 18.1672 12.72 18.1672 12.592C18.1672 12.536 18.1752 12.472 18.1912 12.4C18.2072 12.328 18.2192 12.276 18.2272 12.244C18.2672 12.124 18.2872 12.012 18.2872 11.908C18.2872 11.804 18.2592 11.724 18.2032 11.668C18.1552 11.612 18.0832 11.584 17.9872 11.584C17.8032 11.584 17.6312 11.668 17.4712 11.836C17.3112 11.996 17.1832 12.216 17.0872 12.496C16.9912 12.776 16.9432 13.084 16.9432 13.42C16.9432 14.348 17.3472 14.812 18.1552 14.812C18.4832 14.812 18.8352 14.704 19.2112 14.488C19.5952 14.264 19.9712 13.932 20.3392 13.492C20.4352 13.38 20.5432 13.324 20.6632 13.324C20.7672 13.324 20.8472 13.372 20.9032 13.468C20.9672 13.564 20.9992 13.696 20.9992 13.864C20.9992 14.168 20.9232 14.416 20.7712 14.608C20.3952 15.072 19.9432 15.432 19.4152 15.688C18.8952 15.936 18.3912 16.06 17.9032 16.06ZM21.6011 9.616C21.2651 9.616 21.0131 9.54 20.8451 9.388C20.6771 9.228 20.5931 9.008 20.5931 8.728C20.5931 8.448 20.7011 8.216 20.9171 8.032C21.1411 7.84 21.4171 7.744 21.7451 7.744C22.0411 7.744 22.2811 7.816 22.4651 7.96C22.6491 8.104 22.7411 8.308 22.7411 8.572C22.7411 8.892 22.6371 9.148 22.4291 9.34C22.2211 9.524 21.9451 9.616 21.6011 9.616ZM21.5051 16.06C20.9851 16.06 20.6051 15.876 20.3651 15.508C20.1331 15.14 20.0171 14.652 20.0171 14.044C20.0171 13.684 20.0611 13.224 20.1491 12.664C20.2451 12.096 20.3651 11.568 20.5091 11.08C20.5811 10.824 20.6771 10.648 20.7971 10.552C20.9171 10.456 21.1091 10.408 21.3731 10.408C21.7811 10.408 21.9851 10.544 21.9851 10.816C21.9851 11.016 21.9091 11.48 21.7571 12.208C21.5651 13.088 21.4691 13.684 21.4691 13.996C21.4691 14.236 21.5011 14.42 21.5651 14.548C21.6291 14.676 21.7371 14.74 21.8891 14.74C22.0331 14.74 22.2131 14.64 22.4291 14.44C22.6451 14.24 22.9331 13.924 23.2931 13.492C23.3891 13.38 23.4971 13.324 23.6171 13.324C23.7211 13.324 23.8011 13.372 23.8571 13.468C23.9211 13.564 23.9531 13.696 23.9531 13.864C23.9531 14.184 23.8771 14.432 23.7251 14.608C22.9331 15.576 22.1931 16.06 21.5051 16.06ZM29.3903 13.324C29.4943 13.324 29.5743 13.372 29.6303 13.468C29.6943 13.564 29.7263 13.696 29.7263 13.864C29.7263 14.184 29.6503 14.432 29.4983 14.608C29.1543 15.032 28.7823 15.38 28.3823 15.652C27.9903 15.924 27.5423 16.06 27.0383 16.06C26.6143 16.06 26.2703 15.908 26.0063 15.604C25.5503 15.9 25.0743 16.052 24.5783 16.06C24.4743 17.604 24.2383 18.892 23.8703 19.924C23.5023 20.964 22.9623 21.484 22.2502 21.484C21.8182 21.484 21.4982 21.328 21.2902 21.016C21.0822 20.704 20.9782 20.272 20.9782 19.72C20.9782 18.936 21.1582 18.02 21.5182 16.972C21.8782 15.932 22.4343 14.784 23.1863 13.528C23.1863 12.36 23.1783 11.548 23.1623 11.092C23.1543 10.86 23.2463 10.676 23.4383 10.54C23.6303 10.404 23.8703 10.336 24.1583 10.336C24.3263 10.336 24.4463 10.372 24.5183 10.444C24.5983 10.508 24.6423 10.64 24.6503 10.84C24.6503 11.04 24.6543 11.188 24.6623 11.284C24.9183 10.964 25.1703 10.736 25.4183 10.6C25.6663 10.456 25.9303 10.384 26.2103 10.384C26.6583 10.384 27.0223 10.564 27.3023 10.924C27.5903 11.284 27.7343 11.756 27.7343 12.34C27.7343 12.764 27.6663 13.176 27.5303 13.576C27.3943 13.976 27.2063 14.34 26.9663 14.668C27.1343 14.716 27.2743 14.74 27.3863 14.74C27.6503 14.74 27.9023 14.644 28.1423 14.452C28.3823 14.26 28.6903 13.94 29.0663 13.492C29.1623 13.38 29.2703 13.324 29.3903 13.324ZM24.6383 14.908C24.9263 14.844 25.1903 14.688 25.4303 14.44C25.6783 14.184 25.8743 13.872 26.0183 13.504C26.1623 13.128 26.2343 12.736 26.2343 12.328C26.2343 12.088 26.1863 11.908 26.0903 11.788C25.9943 11.66 25.8663 11.596 25.7063 11.596C25.4183 11.596 25.0703 11.9 24.6623 12.508C24.6543 12.86 24.6503 13.376 24.6503 14.056C24.6503 14.424 24.6463 14.708 24.6383 14.908ZM22.3462 20.308C22.5623 20.308 22.7423 19.836 22.8863 18.892C23.0303 17.956 23.1223 16.788 23.1623 15.388C22.8183 16.188 22.5463 16.952 22.3462 17.68C22.1462 18.408 22.0462 19.02 22.0462 19.516C22.0462 19.772 22.0782 19.968 22.1422 20.104C22.1982 20.24 22.2662 20.308 22.3462 20.308ZM33.0556 13.684C33.1596 13.684 33.2396 13.732 33.2956 13.828C33.3596 13.924 33.3916 14.056 33.3916 14.224C33.3916 14.512 33.3236 14.76 33.1876 14.968C32.9636 15.312 32.6676 15.58 32.2996 15.772C31.9396 15.964 31.5076 16.06 31.0036 16.06C30.2356 16.06 29.6396 15.832 29.2156 15.376C28.7916 14.912 28.5796 14.288 28.5796 13.504C28.5796 12.952 28.6956 12.44 28.9276 11.968C29.1596 11.488 29.4796 11.108 29.8876 10.828C30.3036 10.548 30.7716 10.408 31.2916 10.408C31.7556 10.408 32.1276 10.548 32.4076 10.828C32.6876 11.1 32.8276 11.472 32.8276 11.944C32.8276 12.496 32.6276 12.972 32.2276 13.372C31.8356 13.764 31.1636 14.076 30.2116 14.308C30.4036 14.676 30.7276 14.86 31.1836 14.86C31.5116 14.86 31.7796 14.784 31.9876 14.632C32.2036 14.48 32.4516 14.224 32.7316 13.864C32.8276 13.744 32.9356 13.684 33.0556 13.684ZM31.0876 11.584C30.7916 11.584 30.5396 11.756 30.3316 12.1C30.1316 12.444 30.0316 12.86 30.0316 13.348V13.372C30.5036 13.26 30.8756 13.092 31.1476 12.868C31.4196 12.644 31.5556 12.384 31.5556 12.088C31.5556 11.936 31.5116 11.816 31.4236 11.728C31.3436 11.632 31.2316 11.584 31.0876 11.584Z" fill="black"/>
<path d="M35.416 20.32C35.416 21 35.176 21.588 34.696 22.084C34.216 22.572 33.516 22.924 32.596 23.14C33.092 23.276 33.468 23.5 33.724 23.812C33.98 24.116 34.108 24.468 34.108 24.868C34.108 25.5 33.908 26.048 33.508 26.512C33.116 26.976 32.54 27.336 31.78 27.592C31.02 27.84 30.104 27.964 29.032 27.964C28.632 27.964 28.312 27.952 28.072 27.928C28.064 28.152 27.968 28.32 27.784 28.432C27.6 28.544 27.364 28.6 27.076 28.6C26.788 28.6 26.588 28.536 26.476 28.408C26.372 28.28 26.328 28.092 26.344 27.844C26.416 26.724 26.556 25.552 26.764 24.328C26.972 23.096 27.236 21.908 27.556 20.764C27.612 20.564 27.724 20.424 27.892 20.344C28.06 20.264 28.28 20.224 28.552 20.224C29.04 20.224 29.284 20.36 29.284 20.632C29.284 20.744 29.26 20.872 29.212 21.016C29.004 21.64 28.796 22.488 28.588 23.56C28.38 24.624 28.232 25.64 28.144 26.608C28.528 26.64 28.84 26.656 29.08 26.656C30.2 26.656 31.02 26.496 31.54 26.176C32.068 25.848 32.332 25.432 32.332 24.928C32.332 24.576 32.18 24.28 31.876 24.04C31.58 23.8 31.08 23.668 30.376 23.644C30.216 23.636 30.104 23.596 30.04 23.524C29.976 23.452 29.944 23.336 29.944 23.176C29.944 22.944 29.992 22.756 30.088 22.612C30.184 22.468 30.36 22.392 30.616 22.384C31.184 22.368 31.696 22.284 32.152 22.132C32.616 21.98 32.98 21.768 33.244 21.496C33.508 21.216 33.64 20.892 33.64 20.524C33.64 20.06 33.412 19.696 32.956 19.432C32.5 19.16 31.8 19.024 30.856 19.024C30 19.024 29.172 19.136 28.372 19.36C27.572 19.576 26.892 19.852 26.332 20.188C26.076 20.34 25.86 20.416 25.684 20.416C25.54 20.416 25.428 20.368 25.348 20.272C25.276 20.168 25.24 20.04 25.24 19.888C25.24 19.688 25.28 19.516 25.36 19.372C25.448 19.228 25.652 19.064 25.972 18.88C26.644 18.496 27.432 18.196 28.336 17.98C29.24 17.764 30.164 17.656 31.108 17.656C32.556 17.656 33.636 17.9 34.348 18.388C35.06 18.876 35.416 19.52 35.416 20.32ZM41.1999 24.316C41.3039 24.316 41.3839 24.368 41.4399 24.472C41.4959 24.576 41.5239 24.708 41.5239 24.868C41.5239 25.252 41.4079 25.48 41.1759 25.552C40.6959 25.72 40.1679 25.816 39.5919 25.84C39.4399 26.512 39.1399 27.052 38.6919 27.46C38.2439 27.86 37.7359 28.06 37.1679 28.06C36.6879 28.06 36.2759 27.944 35.9319 27.712C35.5959 27.48 35.3399 27.172 35.1639 26.788C34.9879 26.404 34.8999 25.988 34.8999 25.54C34.8999 24.932 35.0159 24.392 35.2479 23.92C35.4799 23.44 35.7999 23.068 36.2079 22.804C36.6159 22.532 37.0679 22.396 37.5639 22.396C38.1719 22.396 38.6599 22.608 39.0279 23.032C39.4039 23.448 39.6239 23.964 39.6879 24.58C40.0639 24.556 40.5119 24.476 41.0319 24.34C41.0959 24.324 41.1519 24.316 41.1999 24.316ZM37.2639 26.788C37.5199 26.788 37.7399 26.684 37.9239 26.476C38.1159 26.268 38.2439 25.968 38.3079 25.576C38.0599 25.408 37.8679 25.188 37.7319 24.916C37.6039 24.644 37.5399 24.356 37.5399 24.052C37.5399 23.924 37.5519 23.796 37.5759 23.668H37.5159C37.1959 23.668 36.9279 23.824 36.7119 24.136C36.5039 24.44 36.3999 24.872 36.3999 25.432C36.3999 25.872 36.4839 26.208 36.6519 26.44C36.8279 26.672 37.0319 26.788 37.2639 26.788ZM46.614 24.316C46.718 24.316 46.798 24.368 46.854 24.472C46.91 24.576 46.938 24.708 46.938 24.868C46.938 25.252 46.822 25.48 46.59 25.552C46.11 25.72 45.582 25.816 45.006 25.84C44.854 26.512 44.554 27.052 44.106 27.46C43.658 27.86 43.15 28.06 42.582 28.06C42.102 28.06 41.69 27.944 41.346 27.712C41.01 27.48 40.754 27.172 40.578 26.788C40.402 26.404 40.314 25.988 40.314 25.54C40.314 24.932 40.43 24.392 40.662 23.92C40.894 23.44 41.214 23.068 41.622 22.804C42.03 22.532 42.482 22.396 42.978 22.396C43.586 22.396 44.074 22.608 44.442 23.032C44.818 23.448 45.038 23.964 45.102 24.58C45.478 24.556 45.926 24.476 46.446 24.34C46.51 24.324 46.566 24.316 46.614 24.316ZM42.678 26.788C42.934 26.788 43.154 26.684 43.338 26.476C43.53 26.268 43.658 25.968 43.722 25.576C43.474 25.408 43.282 25.188 43.146 24.916C43.018 24.644 42.954 24.356 42.954 24.052C42.954 23.924 42.966 23.796 42.99 23.668H42.93C42.61 23.668 42.342 23.824 42.126 24.136C41.918 24.44 41.814 24.872 41.814 25.432C41.814 25.872 41.898 26.208 42.066 26.44C42.242 26.672 42.446 26.788 42.678 26.788ZM51.008 26.752C51.336 26.816 51.5 26.996 51.5 27.292C51.5 27.492 51.408 27.672 51.224 27.832C51.048 27.984 50.792 28.06 50.456 28.06C49.88 28.06 49.408 27.884 49.04 27.532C48.68 27.172 48.5 26.704 48.5 26.128C48.5 25.816 48.66 25.592 48.98 25.456C49.332 25.304 49.584 25.144 49.736 24.976C49.888 24.8 49.964 24.588 49.964 24.34C49.964 24.196 49.932 24.088 49.868 24.016C49.812 23.944 49.74 23.908 49.652 23.908C49.436 23.908 49.196 24.064 48.932 24.376C48.676 24.688 48.436 25.092 48.212 25.588C47.988 26.076 47.812 26.58 47.684 27.1C47.596 27.476 47.492 27.732 47.372 27.868C47.26 27.996 47.08 28.06 46.832 28.06C46.584 28.06 46.4 27.972 46.28 27.796C46.168 27.612 46.092 27.332 46.052 26.956C46.012 26.58 45.992 26.028 45.992 25.3C45.992 24.068 46.116 22.784 46.364 21.448C46.62 20.112 46.992 18.992 47.48 18.088C47.976 17.176 48.568 16.72 49.256 16.72C49.624 16.72 49.92 16.88 50.144 17.2C50.376 17.512 50.492 17.92 50.492 18.424C50.492 19.232 50.256 20.072 49.784 20.944C49.312 21.808 48.544 22.82 47.48 23.98C47.456 24.396 47.444 24.824 47.444 25.264C47.828 24.264 48.268 23.54 48.764 23.092C49.26 22.636 49.724 22.408 50.156 22.408C50.556 22.408 50.876 22.544 51.116 22.816C51.364 23.088 51.488 23.424 51.488 23.824C51.488 24.264 51.376 24.668 51.152 25.036C50.928 25.404 50.544 25.732 50 26.02C50.048 26.26 50.144 26.428 50.288 26.524C50.44 26.612 50.68 26.688 51.008 26.752ZM49.004 17.908C48.86 17.908 48.7 18.116 48.524 18.532C48.348 18.94 48.176 19.496 48.008 20.2C47.848 20.896 47.716 21.656 47.612 22.48C48.108 21.896 48.516 21.26 48.836 20.572C49.164 19.884 49.328 19.26 49.328 18.7C49.328 18.444 49.3 18.248 49.244 18.112C49.188 17.976 49.108 17.908 49.004 17.908Z" fill="black"/>
</svg>
